<?xml version="1.0" standalone="no"?>
<!DOCTYPE svg PUBLIC "-//W3C//DTD SVG 20010904//EN"
 "http://www.w3.org/TR/2001/REC-SVG-20010904/DTD/svg10.dtd">
<svg version="1.0" xmlns="http://www.w3.org/2000/svg"
 width="50.000000pt" height="50.000000pt" viewBox="0 0 100.000000 100.000000"
 preserveAspectRatio="xMidYMid meet">

<g transform="translate(0.000000,50.000000) scale(0.100000,-0.100000)"
fill="#000000" stroke="none">
<path d="M157 923 c-6 -30 7 -53 30 -53 7 0 16 -7 19 -15 4 -8 11 -15 18 -15
16 0 89 -77 110 -115 9 -16 34 -52 56 -79 29 -37 36 -54 30 -66 -6 -10 -6 -29
0 -46 29 -93 47 -197 40 -235 -4 -23 -3 -57 2 -77 5 -19 7 -49 3 -66 -24 -107
-25 -104 8 -110 16 -3 47 -6 68 -6 49 0 53 24 9 60 -26 22 -37 42 -43 85 -5
32 17 236 27 248 15 19 95 49 108 41 14 -9 98 37 98 53 0 13 50 43 72 43 25 0
36 33 24 70 -12 38 -29 45 -83 35 -30 -5 -34 -10 -31 -30 5 -23 5 -23 -24 -5
-47 28 -98 95 -98 127 0 21 -5 29 -19 29 -15 0 -17 -5 -11 -26 12 -42 40 -93
67 -122 l25 -26 -25 -16 c-28 -19 -54 -13 -62 15 -7 22 -73 59 -105 59 -12 0
-52 31 -100 78 -139 137 -197 192 -203 192 -2 0 -7 -12 -10 -27z m358 -863 c8
-13 -15 -13 -35 0 -12 8 -11 10 7 10 12 0 25 -4 28 -10z"/>
</g>
</svg>
